<svg width="20" height="25" viewBox="0 0 20 25" fill="none" xmlns="http://www.w3.org/2000/svg">
<path d="M10 0.939941L20 4.43994V12.4999C20 16.6269 17.467 19.5119 15.104 21.3029C13.6786 22.3744 12.1143 23.2474 10.454 23.8979L10.367 23.9309L10.342 23.9399L10.335 23.9419L10.332 23.9429C10.331 23.9429 10.33 23.9429 10 22.9999L9.669 23.9439L9.665 23.9419L9.658 23.9399L9.633 23.9299L9.546 23.8979C9.07436 23.7156 8.61062 23.5134 8.156 23.2919C7.00838 22.7344 5.91674 22.0684 4.896 21.3029C2.534 19.5119 0 16.6269 0 12.4999V4.43994L10 0.939941ZM10 22.9999L9.669 23.9439L10 24.0599L10.331 23.9439L10 22.9999ZM10 21.9279L10.009 21.9239C11.3927 21.352 12.6986 20.6078 13.896 19.7089C16.034 18.0899 18 15.7229 18 12.4999V5.85994L10 3.05994L2 5.85994V12.4999C2 15.7229 3.966 18.0879 6.104 19.7099C7.304 20.6105 8.61305 21.3558 10 21.9279ZM16.072 8.84294L9.001 15.9139L4.758 11.6719L6.173 10.2569L9 13.0859L14.657 7.42894L16.072 8.84294Z" fill="#0A0A0A"/>
</svg>
